<svg role="img" viewBox="0 0 24 24" xmlns="http://www.w3.org/2000/svg" fill="url(#jsc_s_2)">
    <path d="M23.9981 11.9991C23.9981 5.37216 18.626 0 11.9991 0C5.37216 0 0 5.37216 0 11.9991C0 17.9882 4.38789 22.9522 10.1242 23.8524V15.4676H7.07758V11.9991H10.1242V9.35553C10.1242 6.34826 11.9156 4.68714 14.6564 4.68714C15.9692 4.68714 17.3424 4.92149 17.3424 4.92149V7.87439H15.8294C14.3388 7.87439 13.8739 8.79933 13.8739 9.74824V11.9991H17.2018L16.6698 15.4676H13.8739V23.8524C19.6103 22.9522 23.9981 17.9882 23.9981 11.9991Z"/>
    <defs>
        <linearGradient x1="50%" x2="50%" y1="97.0782153%" y2="0%" id="jsc_s_2">
            <stop offset="0%" stop-color="#0062E0"/>
            <stop offset="100%" stop-color="#19AFFF"/>
        </linearGradient>
    </defs>
</svg>
