<?xml version="1.0" standalone="no"?>
<!DOCTYPE svg PUBLIC "-//W3C//DTD SVG 20010904//EN"
 "http://www.w3.org/TR/2001/REC-SVG-20010904/DTD/svg10.dtd">
<svg version="1.0" xmlns="http://www.w3.org/2000/svg"
 width="150.000000pt" height="150.000000pt" viewBox="0 0 150.000000 150.000000"
 preserveAspectRatio="xMidYMid meet">
<metadata>
Created by potrace 1.11, written by Peter Selinger 2001-2013
</metadata>
<g transform="translate(0.000000,150.000000) scale(0.100000,-0.100000)"
fill="#000000" stroke="none">
<path d="M666 1438 c1 -13 3 -25 3 -28 1 -3 12 -6 26 -6 41 -3 81 -23 95 -50
11 -19 13 -136 13 -541 0 -285 -3 -535 -7 -556 -13 -78 -45 -127 -93 -141 -33
-10 -59 8 -101 72 -32 49 -42 57 -73 60 -74 6 -100 -86 -40 -145 36 -37 98
-55 179 -54 105 1 190 50 233 133 43 84 46 130 47 651 1 552 1 548 64 563 18
4 36 9 41 10 4 1 11 2 16 3 5 0 11 12 13 26 l5 25 -212 0 -212 0 3 -22z"/>
</g>
</svg>
